<svg width="10" height="10" viewBox="0 0 10 10" fill="none" xmlns="http://www.w3.org/2000/svg">
<path d="M1.03841 5.58333H7.55425L4.70758 8.43C4.48008 8.6575 4.48008 9.03083 4.70758 9.25833C4.93508 9.48583 5.30258 9.48583 5.53008 9.25833L9.37425 5.41416C9.60175 5.18666 9.60175 4.81916 9.37425 4.59166L5.53591 0.741662C5.42693 0.632431 5.27896 0.571045 5.12466 0.571045C4.97036 0.571045 4.8224 0.632431 4.71341 0.741662C4.48591 0.969162 4.48591 1.33666 4.71341 1.56416L7.55425 4.41666H1.03841C0.717578 4.41666 0.455078 4.67916 0.455078 5C0.455078 5.32083 0.717578 5.58333 1.03841 5.58333Z" fill="#F5C123"/>
</svg>
