<svg width="1939" height="620" viewBox="0 0 1939 620" fill="none" xmlns="http://www.w3.org/2000/svg">
<mask id="mask0" mask-type="alpha" maskUnits="userSpaceOnUse" x="-4" y="-8" width="1944" height="628">
<path d="M1939 -8H-4V620H1939V-8Z" fill="white"/>
</mask>
<g mask="url(#mask0)">
<path d="M1939 -8H-4V620H1939V-8Z" fill="url(#paint0_linear)"/>
<path opacity="0.45" d="M1319.42 -611.632L588.806 -60.5715C571.398 -47.4417 567.92 -22.673 581.038 -5.24918L1054.86 624.106C1067.98 641.53 1092.72 645.011 1110.13 631.882L1840.75 80.8208C1858.15 67.691 1861.63 42.9224 1848.51 25.4985L1374.69 -603.857C1361.58 -621.281 1336.83 -624.762 1319.42 -611.632Z" fill="url(#paint1_linear)"/>
<path opacity="0.45" d="M221.786 -666.087L-508.829 -115.026C-526.237 -101.897 -529.715 -77.128 -516.597 -59.7041L-42.7764 569.651C-29.6585 587.075 -4.91249 590.556 12.4955 577.426L743.11 26.3658C760.518 13.236 763.996 -11.5327 750.878 -28.9565L277.057 -658.312C263.94 -675.736 239.194 -679.217 221.786 -666.087Z" fill="url(#paint2_linear)"/>
<path opacity="0.45" d="M1985.13 -208.226L1254.52 342.834C1237.11 355.964 1233.63 380.733 1246.75 398.157L1720.57 1027.51C1733.69 1044.94 1758.44 1048.42 1775.84 1035.29L2506.46 484.227C2523.87 471.097 2527.35 446.328 2514.23 428.904L2040.41 -200.451C2027.29 -217.875 2002.54 -221.356 1985.13 -208.226Z" fill="url(#paint3_linear)"/>
<path opacity="0.7" d="M1154.21 783.077C1422.2 783.077 1639.45 565.628 1639.45 297.39C1639.45 29.1528 1422.2 -188.297 1154.21 -188.297C886.217 -188.297 668.966 29.1528 668.966 297.39C668.966 565.628 886.217 783.077 1154.21 783.077Z" fill="url(#paint4_radial)"/>
</g>
<defs>
<linearGradient id="paint0_linear" x1="-4" y1="338.742" x2="1727.35" y2="-220.679" gradientUnits="userSpaceOnUse">
<stop stop-color="#00ADEE"/>
<stop offset="1" stop-color="#274486"/>
</linearGradient>
<linearGradient id="paint1_linear" x1="1016.01" y1="572.507" x2="1403.79" y2="-421.759" gradientUnits="userSpaceOnUse">
<stop stop-color="#00ADEE"/>
<stop offset="0.632054" stop-color="#000631"/>
<stop offset="1" stop-color="#274486"/>
</linearGradient>
<linearGradient id="paint2_linear" x1="-81.624" y1="518.052" x2="306.155" y2="-476.214" gradientUnits="userSpaceOnUse">
<stop stop-color="#00ADEE"/>
<stop offset="0.632054" stop-color="#000631"/>
<stop offset="1" stop-color="#274486"/>
</linearGradient>
<linearGradient id="paint3_linear" x1="1681.73" y1="975.913" x2="2069.5" y2="-18.3535" gradientUnits="userSpaceOnUse">
<stop stop-color="#00ADEE"/>
<stop offset="0.632054" stop-color="#000631"/>
<stop offset="1" stop-color="#1CA3EC"/>
</linearGradient>
<radialGradient id="paint4_radial" cx="0" cy="0" r="1" gradientUnits="userSpaceOnUse" gradientTransform="translate(-246.49 1166.61) rotate(86.8098) scale(445.965 488.641)">
<stop stop-color="#512EC3"/>
<stop offset="1" stop-color="#3659D2" stop-opacity="0"/>
</radialGradient>
</defs>
</svg>
