<svg width="25" height="26" viewBox="0 0 25 26" fill="none" xmlns="http://www.w3.org/2000/svg">
<circle cx="12.5" cy="13" r="12" stroke="#1CA3EC"/>
<path d="M17.8883 10.7695C17.8629 10.1938 17.7698 9.79798 17.6365 9.455C17.4989 9.09094 17.2872 8.765 17.0099 8.49405C16.7389 8.21888 16.4108 8.00505 16.051 7.86962C15.706 7.73625 15.3123 7.64315 14.7366 7.61776C14.1565 7.59023 13.9724 7.58386 12.5013 7.58386C11.0302 7.58386 10.846 7.59023 10.2682 7.61561C9.69244 7.641 9.29663 7.73418 8.95374 7.86747C8.5896 8.00505 8.26366 8.21673 7.9927 8.49405C7.71753 8.765 7.50379 9.09309 7.36828 9.45294C7.23491 9.79798 7.1418 10.1916 7.11642 10.7674C7.08889 11.3474 7.08252 11.5315 7.08252 13.0026C7.08252 14.4738 7.08889 14.6579 7.11427 15.2358C7.13965 15.8115 7.23284 16.2073 7.36621 16.5503C7.50379 16.9143 7.71753 17.2403 7.9927 17.5112C8.26366 17.7864 8.59175 18.0002 8.95159 18.1357C9.29663 18.269 9.69029 18.3621 10.2661 18.3875C10.8439 18.413 11.0281 18.4193 12.4992 18.4193C13.9703 18.4193 14.1545 18.413 14.7324 18.3875C15.3081 18.3621 15.7039 18.269 16.0468 18.1357C16.775 17.8541 17.3507 17.2784 17.6322 16.5503C17.7655 16.2052 17.8587 15.8115 17.8841 15.2358C17.9095 14.6579 17.9159 14.4738 17.9159 13.0026C17.9159 11.5315 17.9137 11.3474 17.8883 10.7695ZM16.9126 15.1934C16.8892 15.7226 16.8004 16.0084 16.7263 16.1989C16.5442 16.6709 16.1696 17.0456 15.6975 17.2276C15.507 17.3017 15.2192 17.3906 14.6921 17.4138C14.1206 17.4393 13.9492 17.4456 12.5034 17.4456C11.0577 17.4456 10.8842 17.4393 10.3147 17.4138C9.78554 17.3906 9.49978 17.3017 9.30928 17.2276C9.07438 17.1408 8.86056 17.0032 8.687 16.8233C8.50708 16.6476 8.3695 16.4359 8.28268 16.201C8.20859 16.0105 8.11971 15.7226 8.09647 15.1956C8.07101 14.6241 8.06472 14.4526 8.06472 13.0069C8.06472 11.5611 8.07101 11.3876 8.09647 10.8182C8.11971 10.289 8.20859 10.0033 8.28268 9.81278C8.3695 9.57779 8.50708 9.36405 8.68915 9.19041C8.86477 9.01049 9.07644 8.87291 9.31143 8.78617C9.50193 8.71209 9.78984 8.6232 10.3169 8.59988C10.8884 8.5745 11.0599 8.56813 12.5055 8.56813C13.9534 8.56813 14.1248 8.5745 14.6942 8.59988C15.2234 8.6232 15.5092 8.71209 15.6997 8.78617C15.9346 8.87291 16.1484 9.01049 16.322 9.19041C16.5019 9.36612 16.6395 9.57779 16.7263 9.81278C16.8004 10.0033 16.8892 10.2911 16.9126 10.8182C16.938 11.3897 16.9443 11.5611 16.9443 13.0069C16.9443 14.4526 16.938 14.6219 16.9126 15.1934Z" fill="#1CA3EC"/>
<path d="M12.5013 10.2192C10.9646 10.2192 9.71782 11.4659 9.71782 13.0026C9.71782 14.5394 10.9646 15.7861 12.5013 15.7861C14.0381 15.7861 15.2848 14.5394 15.2848 13.0026C15.2848 11.4659 14.0381 10.2192 12.5013 10.2192ZM12.5013 14.8082C11.5044 14.8082 10.6957 13.9997 10.6957 13.0026C10.6957 12.0056 11.5044 11.1971 12.5013 11.1971C13.4983 11.1971 14.3069 12.0056 14.3069 13.0026C14.3069 13.9997 13.4983 14.8082 12.5013 14.8082Z" fill="#1CA3EC"/>
<path d="M16.0447 10.1091C16.0447 10.468 15.7538 10.7589 15.3948 10.7589C15.036 10.7589 14.745 10.468 14.745 10.1091C14.745 9.75019 15.036 9.4593 15.3948 9.4593C15.7538 9.4593 16.0447 9.75019 16.0447 10.1091Z" fill="#1CA3EC"/>
</svg>
