<svg width="60" height="60" viewBox="0 0 60 60" fill="none" xmlns="http://www.w3.org/2000/svg">
<path d="M49.3426 48.6144C48.8572 48.6144 48.4637 49.0079 48.4637 49.4933V57.7567C48.4637 58.0242 48.246 58.242 47.9784 58.242H43.2538V40.9337C43.2538 40.4483 42.8603 40.0548 42.3749 40.0548C41.8895 40.0548 41.496 40.4483 41.496 40.9337V58.2421H31.9821L34.7411 55.2069C35.0425 54.8753 35.1846 54.4029 35.1212 53.9428C35.12 53.9339 35.1186 53.925 35.1171 53.9161L32.4894 38.3926L33.1973 37.3269C33.5888 37.6049 33.8903 37.8725 34.4557 37.8725C35.0309 37.8725 35.5686 37.5506 35.8332 37.0207L38.6047 31.4659L44.9183 33.911C45.1467 34.009 48.4635 35.5027 48.4635 39.4467V45.3916C48.4634 45.8769 48.8569 46.2705 49.3424 46.2705C49.8278 46.2705 50.2213 45.877 50.2213 45.3916V39.4467C50.2213 34.2502 45.7718 32.3612 45.5824 32.2833C45.5769 32.2809 45.5713 32.2787 45.5657 32.2766L35.0577 28.2071V25.7427C36.7267 24.4447 37.8839 22.5206 38.1744 20.3255C39.0066 20.2669 39.7787 19.9561 40.4093 19.4139C41.2328 18.7057 41.7053 17.675 41.7053 16.5866C41.7053 15.6833 41.3794 14.8208 40.7986 14.1488V10.8929C40.7985 4.8866 35.912 0 29.9057 0C23.8993 0 19.0129 4.8866 19.0129 10.8929V14.2341C18.4259 14.8993 18.1066 15.7182 18.1066 16.5865C18.1066 17.6753 18.5789 18.7058 19.4026 19.4141C20.0327 19.9561 20.8044 20.2665 21.6363 20.3252C21.9292 22.5615 23.1202 24.5573 24.9313 25.8728V28.2071L14.4347 32.2765C14.4292 32.2786 14.4237 32.2808 14.4182 32.283C14.2287 32.361 9.7793 34.2499 9.7793 39.4465V57.7564C9.7793 58.9934 10.7856 59.9996 12.0225 59.9996H20.3964C20.8818 59.9996 21.2753 59.6061 21.2753 59.1207C21.2753 58.6354 20.8818 58.2418 20.3964 58.2418H18.5053V40.9337C18.5053 40.4483 18.1118 40.0548 17.6264 40.0548C17.141 40.0548 16.7475 40.4483 16.7475 40.9337V58.2421H12.0226C11.7551 58.2421 11.5373 58.0243 11.5373 57.7568V39.4466C11.5373 35.4893 14.8764 33.999 15.0814 33.9114L21.3901 31.4657L24.1618 37.0206C24.427 37.5518 24.9655 37.8725 25.5395 37.8725C26.1021 37.8725 26.4007 37.609 26.7979 37.3269L27.5058 38.3926L24.8783 53.9162C24.8768 53.925 24.8755 53.9338 24.8742 53.9427C24.8107 54.4025 24.9529 54.8752 25.2544 55.207L28.0133 58.2422H24.4983C24.0129 58.2422 23.6194 58.6357 23.6194 59.1211C23.6194 59.6065 24.0129 60 24.4983 60H47.9786C49.2155 60 50.2218 58.9936 50.2218 57.7568V49.4934C50.2215 49.0079 49.828 48.6144 49.3426 48.6144ZM36.9584 30.8284L34.3745 36.0069C34.3103 35.9613 32.9409 34.9884 31.267 33.7998C31.9934 32.9032 31.1436 33.952 34.4586 29.8603L36.9584 30.8284ZM31.7632 36.3086L31.0931 37.3172H28.9014L28.2313 36.3086L29.9973 35.0543L31.7632 36.3086ZM26.689 28.4907V26.8459C27.7568 27.2763 28.898 27.4759 30.0124 27.4759C31.1647 27.4759 32.2948 27.2303 33.2998 26.7908V28.4979L29.9973 32.5743L26.689 28.4907ZM39.9473 16.5866C39.9472 17.1623 39.6979 17.7071 39.2631 18.0811C38.9756 18.3284 38.6284 18.4864 38.2481 18.5483V14.6252C39.2583 14.7893 39.9473 15.6272 39.9473 16.5866ZM21.5637 18.5483C20.542 18.3825 19.8645 17.5378 19.8645 16.5865C19.8645 15.6469 20.6434 14.8821 21.5637 14.6694V18.5483ZM21.6109 12.8784C21.3309 12.9105 21.0101 12.9864 20.7709 13.0677V10.8929C20.7709 5.85586 24.8687 1.75793 29.9058 1.75793C34.9429 1.75793 39.0407 5.85586 39.0407 10.8929V13.0073C38.7852 12.9296 38.5202 12.8783 38.2482 12.8542C38.2482 12.0061 38.2556 12.1697 35.4812 9.18691C34.971 8.63871 34.127 8.52387 33.4847 8.94352C30.4226 10.9438 26.6872 11.9487 23.2407 11.7012C22.4848 11.6446 21.7962 12.1425 21.6109 12.8784ZM23.3216 19.2403V13.7569V13.468C27.1155 13.6902 31.0932 12.5631 34.3066 10.5052C35.5791 11.8713 36.2681 12.5879 36.4903 12.8605C36.4903 13.55 36.4903 18.4509 36.4903 19.2402C36.4903 22.8082 33.581 25.7179 30.0125 25.7179C26.0054 25.718 23.3216 22.6095 23.3216 19.2403ZM25.6202 36.0069L23.0364 30.8284L25.5316 29.862L28.7239 33.8024C27.1005 34.9552 25.7675 35.9023 25.6202 36.0069ZM26.6286 54.1057L29.1727 39.0749H30.8216L33.3656 54.1057L29.9972 57.8115L26.6286 54.1057Z" fill="#274486"/>
</svg>
