<svg width="60" height="60" viewBox="0 0 60 60" fill="none" xmlns="http://www.w3.org/2000/svg">
<g clip-path="url(#clip0)">
<path d="M50.9805 20.0499C50.9799 20.0499 50.9791 20.0499 50.9785 20.0499H0.859048C0.385168 20.0494 0.000501685 20.4331 4.90487e-07 20.9069C4.90487e-07 20.9076 4.90487e-07 20.9083 4.90487e-07 20.9089V44.9663C-0.000500704 45.4402 0.383164 45.8248 0.857043 45.8253C0.85767 45.8253 0.858421 45.8253 0.859048 45.8253H34.9403C35.4147 45.8253 35.7993 45.4407 35.7993 44.9663C35.7993 44.4919 35.4147 44.1072 34.9403 44.1072H1.7181V21.768H50.1195V23.9161C50.119 24.39 50.5026 24.7747 50.9765 24.7752C50.9771 24.7752 50.9779 24.7752 50.9785 24.7752C51.4524 24.7757 51.837 24.392 51.8376 23.9181C51.8376 23.9175 51.8376 23.9167 51.8376 23.9161V20.9089C51.8381 20.4351 51.4544 20.0505 50.9805 20.0499Z" fill="#274486"/>
<path d="M45.1524 16.0614L5.05679 7.03989C4.83426 6.99015 4.60108 7.03049 4.40824 7.15216C4.21566 7.27483 4.07946 7.46866 4.02934 7.69144L2.02456 16.7129C1.92157 17.1763 2.21376 17.6354 2.67712 17.7384C3.14047 17.8414 3.59957 17.5492 3.70256 17.0858L5.51989 8.90534L44.7755 17.7374C44.8376 17.7518 44.9011 17.7589 44.9649 17.7584C45.4393 17.7576 45.8232 17.3723 45.8224 16.8979C45.8217 16.4968 45.5435 16.1497 45.1524 16.0614Z" fill="#274486"/>
<path d="M40.2843 11.0906L16.2269 1.06668C15.8088 0.892388 15.327 1.07144 15.1243 1.47666L13.1195 5.48621C12.8931 5.90496 13.049 6.42808 13.4679 6.6545C13.8866 6.88091 14.4097 6.72504 14.6361 6.30617C14.645 6.28975 14.6534 6.27296 14.6612 6.25592V6.25793L16.3061 2.96608L39.6207 12.6802C40.0597 12.8634 40.5642 12.6562 40.7474 12.2171C40.9306 11.7783 40.7233 11.2739 40.2843 11.0906Z" fill="#274486"/>
<path d="M40.8917 24.0595H32.9357C32.4613 24.0595 32.0767 24.4441 32.0767 24.9185C32.0767 25.3929 32.4613 25.7776 32.9357 25.7776H40.8917C41.366 25.7776 41.7507 25.3929 41.7507 24.9185C41.7507 24.4441 41.366 24.0595 40.8917 24.0595Z" fill="#274486"/>
<path d="M24.821 24C19.9493 24 16 27.9493 16 32.821C16.005 37.6906 19.9514 41.637 24.821 41.642C29.6928 41.642 33.642 37.6927 33.642 32.821C33.642 27.9493 29.6928 24 24.821 24ZM24.821 40.0382C20.835 40.0382 17.6038 36.807 17.6038 32.821C17.6082 28.8369 20.8369 25.6082 24.821 25.6038C28.807 25.6038 32.0382 28.835 32.0382 32.821C32.0382 36.807 28.807 40.0382 24.821 40.0382Z" fill="#274486"/>
<path d="M48.9735 26.9233C43.6609 26.9233 37.9473 28.1783 37.9473 30.9329V54.9902C37.9473 57.7448 43.6609 58.9997 48.9735 58.9997C54.2862 58.9997 59.9998 57.7448 59.9998 54.9902V30.9329C59.9998 28.1783 54.2862 26.9233 48.9735 26.9233ZM57.995 54.9752C57.8437 55.5315 54.8375 56.995 48.9735 56.995C43.1096 56.995 40.1034 55.5315 39.952 54.9902V53.4144C42.0851 54.489 45.6085 54.9902 48.9735 54.9902C52.3386 54.9902 55.863 54.484 57.995 53.4134V54.9752ZM57.995 50.9656C57.8437 51.5219 54.8375 52.9854 48.9735 52.9854C43.1096 52.9854 40.1034 51.5219 39.952 50.9806V49.4049C42.0851 50.4794 45.6085 50.9806 48.9735 50.9806C52.3386 50.9806 55.863 50.4744 57.995 49.4039V50.9656ZM57.995 46.956C57.8437 47.5124 54.8375 48.9759 48.9735 48.9759C43.1096 48.9759 40.1034 47.5124 39.952 46.9711V45.3953C42.0851 46.4699 45.6085 46.9711 48.9735 46.9711C52.3386 46.9711 55.863 46.4649 57.995 45.3943V46.956ZM57.995 42.9465C57.8437 43.5028 54.8375 44.9663 48.9735 44.9663C43.1096 44.9663 40.1034 43.5028 39.952 42.9615V41.3858C42.0851 42.4603 45.6085 42.9615 48.9735 42.9615C52.3386 42.9615 55.863 42.4553 57.995 41.3848V42.9465ZM57.995 38.9369C57.8437 39.4933 54.8375 40.9567 48.9735 40.9567C43.1096 40.9567 40.1034 39.4933 39.952 38.952V37.3762C42.0851 38.4458 45.6085 38.952 48.9735 38.952C52.3386 38.952 55.863 38.4458 57.995 37.3752V38.9369ZM57.995 34.9274C57.8437 35.4837 54.8375 36.9472 48.9735 36.9472C43.1096 36.9472 40.1034 35.4837 39.952 34.9424V33.3667C42.0851 34.4362 45.6085 34.9424 48.9735 34.9424C52.3386 34.9424 55.863 34.4362 57.995 33.3657V34.9274ZM48.9735 32.9376C43.1186 32.9376 40.1134 31.4782 39.952 30.9509V30.9449C40.1134 30.3866 43.1186 28.9281 48.9735 28.9281C54.7874 28.9281 57.7946 30.3655 57.995 30.9329C57.7946 31.5002 54.7874 32.9376 48.9735 32.9376Z" fill="#F5C123"/>
<path d="M16.897 40.0967H9.31996L5.7274 36.1673V29.6518L9.69486 25.7776H16.897C17.3714 25.7776 17.7561 25.3929 17.7561 24.9185C17.7561 24.4441 17.3714 24.0595 16.897 24.0595H9.34602C9.12149 24.059 8.9056 24.1464 8.74459 24.3031L4.26692 28.6705C4.09964 28.8659 4.00793 29.1149 4.0083 29.3721V36.5011C4.0083 36.7155 4.08837 36.9221 4.23284 37.0805L8.30554 41.5351C8.46831 41.7133 8.69861 41.8149 8.94006 41.8148H16.897C17.3714 41.8148 17.7561 41.4301 17.7561 40.9557C17.7561 40.4814 17.3715 40.0967 16.897 40.0967Z" fill="#274486"/>
<path d="M25.4175 31.9352H24.4152C24.1034 31.9352 23.914 31.7608 23.914 31.6846C23.914 31.6085 24.1034 31.4341 24.4152 31.4341H26.9211C27.4747 31.4341 27.9235 30.9852 27.9235 30.4317C27.9235 29.8781 27.4747 29.4293 26.9211 29.4293H25.9187C25.9187 28.8757 25.4699 28.4269 24.9163 28.4269C24.3628 28.4269 23.914 28.8757 23.914 29.4293V29.4744C22.8022 29.6314 21.9599 30.558 21.9092 31.6796C21.981 32.9939 23.1004 34.0037 24.4152 33.94H25.4175C25.7293 33.94 25.9187 34.1144 25.9187 34.1906C25.9187 34.2668 25.7293 34.4412 25.4175 34.4412H22.9116C22.358 34.4412 21.9092 34.89 21.9092 35.4436C21.9092 35.9972 22.358 36.446 22.9116 36.446H23.914C23.914 36.9996 24.3628 37.4484 24.9163 37.4484C25.4699 37.4484 25.9187 36.9996 25.9187 36.446V36.4009C27.0305 36.2439 27.8728 35.3173 27.9235 34.1956C27.8517 32.8814 26.7323 31.8716 25.4175 31.9352Z" fill="#1CA3EC"/>
</g>
<defs>
<clipPath id="clip0">
<rect width="60" height="60" fill="white"/>
</clipPath>
</defs>
</svg>
