<svg width="60" height="60" viewBox="0 0 60 60" fill="none" xmlns="http://www.w3.org/2000/svg">
<path d="M57 30H56V9C55.9967 6.24 53.76 4.00325 51 4H9C6.24 4.00325 4.00325 6.24 4 9V24H3C1.34312 24 0 25.3431 0 27V53C0 54.6569 1.34312 56 3 56H41C41.5522 56 42 55.5522 42 55C41.9967 52.24 39.76 50.0033 37 50H34V44H46V53C46 54.6569 47.3431 56 49 56H57C58.6569 56 60 54.6569 60 53V33C60 31.3431 58.6569 30 57 30ZM22 53C22 53.5522 21.5522 54 21 54H3C2.44775 54 2 53.5522 2 53V52H22V53ZM22 50H2V27C2 26.4478 2.44775 26 3 26H21C21.5522 26 22 26.4478 22 27V50ZM37 52C38.271 52.0015 39.4036 52.8022 39.829 54H23.816C23.9345 53.6797 23.9966 53.3415 24 53V52H37ZM24 50V44H26V50H24ZM28 50V44H32V50H28ZM46 42H24V36H46V42ZM46 33V34H24V27C23.9966 26.5255 23.8793 26.0588 23.658 25.639C23.673 25.625 23.693 25.621 23.707 25.606L33.607 15.706C33.9907 15.3088 33.9798 14.6756 33.5825 14.292C33.195 13.9177 32.5806 13.9177 32.193 14.292L22.293 24.192C22.269 24.217 22.259 24.249 22.238 24.275C21.85 24.095 21.4276 24.0012 21 24H6V9C6 7.34312 7.34312 6 9 6H51C52.6569 6 54 7.34312 54 9V30H49C47.3431 30 46 31.3431 46 33ZM58 53C58 53.5522 57.5522 54 57 54H49C48.4478 54 48 53.5522 48 53V52H58V53ZM58 50H48V33C48 32.4478 48.4478 32 49 32H57C57.5522 32 58 32.4478 58 33V50Z" fill="#274486"/>
<path d="M11.9491 36.172C11.5586 35.7816 10.9256 35.7816 10.5351 36.172L6.29307 40.414C5.89582 40.7977 5.88482 41.4307 6.26857 41.828C6.65232 42.2252 7.28532 42.2362 7.68257 41.8525C7.69094 41.8445 7.69907 41.8362 7.70707 41.828L11.9491 37.586C12.1276 37.2766 11.7688 36.6885 11.9491 36.172Z" fill="#1CA3EC"/>
<path d="M17.9246 36.172C17.5371 35.7977 16.9227 35.7977 16.5351 36.172L12.2931 40.414C11.8958 40.7976 11.8848 41.4307 12.2686 41.828C12.6522 42.2252 13.2853 42.2362 13.6826 41.8525C13.6909 41.8445 13.6991 41.8362 13.7071 41.828L17.9491 37.586C18.3327 37.1887 18.3218 36.5556 17.9246 36.172Z" fill="#1CA3EC"/>
<path d="M39.6827 14.293C39.2952 13.9187 38.6808 13.9187 38.2932 14.293L28.3932 24.193C27.9959 24.5766 27.9849 25.2097 28.3686 25.607C28.7522 26.0042 29.3853 26.0152 29.7826 25.6316C29.7909 25.6236 29.7991 25.6154 29.8072 25.607L39.7072 15.707C40.0909 15.3097 40.0799 14.6766 39.6827 14.293Z" fill="#1CA3EC"/>
<path d="M55.0965 38.879C54.709 38.5046 54.0945 38.5046 53.707 38.879L50.879 41.707C50.4818 42.0907 50.4708 42.7237 50.8545 43.121C51.2383 43.5182 51.8713 43.5292 52.2685 43.1455C52.2768 43.1375 52.285 43.1292 52.293 43.121L55.121 40.293C55.5047 39.8957 55.4937 39.2627 55.0965 38.879Z" fill="#1CA3EC"/>
<path d="M30.0197 38H30.0097C29.4574 38.0028 29.0119 38.4528 29.0147 39.005C29.0174 39.5573 29.4674 40.0028 30.0197 40C30.5719 40 31.0197 39.5523 31.0197 39C31.0197 38.4478 30.5719 38 30.0197 38Z" fill="#1CA3EC"/>
<path d="M32 8H28C27.4477 8 27 8.44775 27 9C27 9.55225 27.4477 10 28 10H32C32.5522 10 33 9.55225 33 9C33 8.44775 32.5522 8 32 8Z" fill="#1CA3EC"/>
</svg>
