<svg width="25" height="26" viewBox="0 0 25 26" fill="none" xmlns="http://www.w3.org/2000/svg">
<circle cx="12.5" cy="13" r="12" stroke="#1CA3EC"/>
<path fill-rule="evenodd" clip-rule="evenodd" d="M12.1256 10.6604L12.1519 11.0929L11.7147 11.04C10.1234 10.8369 8.73315 10.1484 7.55278 8.99208L6.97571 8.41832L6.82707 8.84202C6.5123 9.78652 6.71341 10.784 7.36917 11.4548C7.71891 11.8256 7.64022 11.8785 7.03691 11.6579C6.82707 11.5872 6.64346 11.5343 6.62597 11.5608C6.56477 11.6226 6.77461 12.4258 6.94074 12.7436C7.16807 13.185 7.63147 13.6175 8.13859 13.8735L8.56702 14.0765L8.0599 14.0853C7.57027 14.0853 7.55278 14.0941 7.60524 14.2795C7.78011 14.8533 8.47085 15.4623 9.24027 15.7272L9.78237 15.9125L9.31022 16.195C8.61074 16.601 7.78885 16.8305 6.96697 16.8482C6.57351 16.857 6.25 16.8923 6.25 16.9188C6.25 17.0071 7.31671 17.5014 7.93749 17.6956C9.79986 18.2694 12.012 18.0222 13.6732 17.0424C14.8536 16.3451 16.034 14.9592 16.5848 13.6175C16.8821 12.9025 17.1794 11.5961 17.1794 10.9693C17.1794 10.5633 17.2056 10.5103 17.6952 10.0248C17.9838 9.74238 18.2548 9.43343 18.3073 9.34516C18.3947 9.17745 18.386 9.17745 17.94 9.32751C17.1969 9.59232 17.0919 9.55701 17.4592 9.15979C17.7302 8.87733 18.0537 8.36535 18.0537 8.21529C18.0537 8.18881 17.9226 8.23295 17.7739 8.31239C17.6165 8.40066 17.2668 8.53307 17.0045 8.61251L16.5323 8.76257L16.1039 8.47128C15.8678 8.31239 15.5356 8.13585 15.3607 8.08289C14.9148 7.95931 14.2328 7.97696 13.8306 8.11819C12.7377 8.51541 12.0469 9.53936 12.1256 10.6604Z" fill="#1CA3EC"/>
</svg>
