<svg width="30" height="30" viewBox="0 0 30 30" fill="none" xmlns="http://www.w3.org/2000/svg">
<circle cx="15" cy="15" r="14.5" stroke="white"/>
<path d="M21.467 12.3228C21.4365 11.6319 21.3248 11.1569 21.1647 10.7454C20.9996 10.3085 20.7456 9.91737 20.4128 9.59222C20.0877 9.26201 19.694 9.00543 19.2622 8.8429C18.8482 8.68286 18.3757 8.57114 17.6849 8.54068C16.9888 8.50764 16.7679 8.5 15.0025 8.5C13.2372 8.5 13.0162 8.50764 12.3228 8.5381C11.6319 8.56856 11.1569 8.68038 10.7455 8.84032C10.3085 9.00543 9.91737 9.25943 9.59222 9.59222C9.26202 9.91737 9.00553 10.3111 8.84291 10.7429C8.68286 11.1569 8.57114 11.6293 8.54068 12.3202C8.50764 13.0162 8.5 13.2372 8.5 15.0025C8.5 16.7679 8.50764 16.9888 8.5381 17.6823C8.56856 18.3732 8.68038 18.8481 8.84043 19.2597C9.00553 19.6966 9.26202 20.0877 9.59222 20.4129C9.91737 20.7431 10.3111 20.9996 10.7429 21.1622C11.1569 21.3222 11.6293 21.4339 12.3203 21.4644C13.0137 21.495 13.2347 21.5025 15 21.5025C16.7654 21.5025 16.9863 21.495 17.6798 21.4644C18.3707 21.4339 18.8456 21.3222 19.2571 21.1622C20.131 20.8243 20.8218 20.1334 21.1597 19.2597C21.3196 18.8457 21.4314 18.3732 21.4619 17.6823C21.4924 16.9888 21.5 16.7679 21.5 15.0025C21.5 13.2372 21.4974 13.0162 21.467 12.3228ZM20.2961 17.6315C20.2681 18.2665 20.1614 18.6094 20.0725 18.838C19.854 19.4045 19.4045 19.854 18.838 20.0725C18.6094 20.1614 18.264 20.2681 17.6315 20.296C16.9457 20.3265 16.74 20.3341 15.0051 20.3341C13.2702 20.3341 13.062 20.3265 12.3786 20.296C11.7436 20.2681 11.4007 20.1614 11.1721 20.0725C10.8902 19.9683 10.6336 19.8032 10.4254 19.5873C10.2095 19.3765 10.0444 19.1225 9.94019 18.8406C9.85129 18.612 9.74462 18.2665 9.71674 17.6341C9.68618 16.9483 9.67864 16.7425 9.67864 15.0076C9.67864 13.2727 9.68618 13.0645 9.71674 12.3812C9.74462 11.7462 9.85129 11.4033 9.94019 11.1747C10.0444 10.8927 10.2095 10.6362 10.428 10.4279C10.6387 10.212 10.8927 10.0468 11.1747 9.94277C11.4033 9.85387 11.7488 9.7472 12.3812 9.71922C13.067 9.68876 13.2728 9.68112 15.0076 9.68112C16.745 9.68112 16.9507 9.68876 17.6341 9.71922C18.2691 9.7472 18.612 9.85387 18.8406 9.94277C19.1225 10.0468 19.3791 10.212 19.5873 10.4279C19.8032 10.6387 19.9683 10.8927 20.0725 11.1747C20.1614 11.4033 20.2681 11.7487 20.2961 12.3812C20.3265 13.067 20.3342 13.2727 20.3342 15.0076C20.3342 16.7425 20.3265 16.9457 20.2961 17.6315Z" fill="white"/>
<path d="M15.0025 11.6624C13.1585 11.6624 11.6624 13.1584 11.6624 15.0025C11.6624 16.8467 13.1585 18.3427 15.0025 18.3427C16.8466 18.3427 18.3427 16.8467 18.3427 15.0025C18.3427 13.1584 16.8466 11.6624 15.0025 11.6624ZM15.0025 17.1692C13.8062 17.1692 12.8358 16.1989 12.8358 15.0025C12.8358 13.8061 13.8062 12.8359 15.0025 12.8359C16.1989 12.8359 17.1692 13.8061 17.1692 15.0025C17.1692 16.1989 16.1989 17.1692 15.0025 17.1692Z" fill="white"/>
<path d="M19.2547 11.5303C19.2547 11.9609 18.9055 12.3101 18.4748 12.3101C18.0442 12.3101 17.695 11.9609 17.695 11.5303C17.695 11.0996 18.0442 10.7505 18.4748 10.7505C18.9055 10.7505 19.2547 11.0996 19.2547 11.5303Z" fill="white"/>
</svg>
